<?xml version="1.0" encoding="UTF-8" standalone="no"?><!-- Created with Inkscape (http://www.inkscape.org/) -->

<svg height="34.083984mm" id="svg1" version="1.1" viewBox="0 0 160.75324 34.083984" width="160.75323mm" xmlns="http://www.w3.org/2000/svg"
    xml:space="preserve"><defs
     id="defs1" />
    <g id="g3" transform="translate(0,-66.033355)"><text
       style="font-style:normal;font-variant:normal;font-weight:normal;font-stretch:normal;font-size:31.9515px;font-family:Cabin;-inkscape-font-specification:'Cabin, @wght=448,wdth=75.0';font-variant-ligatures:normal;font-variant-caps:normal;font-variant-numeric:normal;font-variant-east-asian:normal;font-variation-settings:'wdth' 75, 'wght' 448;letter-spacing:-1.05833px;display:inline;fill:#2c2c2c;fill-opacity:1;stroke:none;stroke-width:2.66265;stroke-opacity:1"
       id="text3"
       transform="scale(1.079553,0.92630932)"
       x="46.61084"
       y="101.13541"
       xml:space="preserve"><tspan
         style="font-style:normal;font-variant:normal;font-weight:normal;font-stretch:normal;font-size:31.9515px;font-family:'Roboto Condensed';-inkscape-font-specification:'Roboto Condensed, @wght=437';font-variant-ligatures:normal;font-variant-caps:normal;font-variant-numeric:normal;font-variant-east-asian:normal;font-variation-settings:'wght' 437;letter-spacing:-1.05833px;fill:#2c2c2c;fill-opacity:1;stroke:none;stroke-width:2.66265;stroke-opacity:1"
         id="tspan3"
         x="46.61084"
         y="101.13541">Ekonum</tspan></text>
        <path style="color:#000000;fill:#4094cb;fill-opacity:1;fill-rule:evenodd;stroke-width:2.13006;stroke-miterlimit:3.9;-inkscape-stroke:none;paint-order:markers fill stroke"
            d="m 24.061189,67.479444 c -5.259874,0 -10.412278,3.57582 -12.093852,9.86813 -5.8662528,0.725947 -9.5286059,5.330615 -9.6854054,10.109219 -0.089845,2.738048 0.9029724,5.392095 2.6702352,7.255931 1.9022937,2.006255 4.8246878,3.265902 8.4580952,3.265902 h 21.300455 c 1.961478,-1.46e-4 2.847022,-0.09605 4.330265,-0.678018 0.0026,-9.76e-4 0.004,-10e-4 0.0079,-0.0026 1.663249,-0.564254 3.060341,-1.455009 4.136591,-2.581261 1.91335,-2.002205 2.785859,-4.654906 2.712242,-7.251669 C 45.8786,86.796283 45.45604,78.47083 36.150805,77.341742 34.467793,71.052559 29.319862,67.478019 24.061373,67.478019 Z m 0,3.873495 c 3.852043,0 7.648965,2.313495 8.673828,7.639149 -1.132083,0.628794 -2.311305,1.460696 -3.541083,2.488778 -3.308409,2.974573 -6.457381,5.862902 -9.641393,8.97215 -1.636137,1.563944 -2.79582,3.264872 -6.066168,3.652247 C 11.247498,94.37047 9.9525202,93.571327 9.2022046,93.154228 7.9630995,92.362077 6.3344826,90.842725 6.1641602,88.271332 6.0795927,83.460405 11.986599,76.941544 21.76937,84.205193 19.774092,82.132168 17.774262,80.648318 15.266169,79.64153 l 0.05396,-0.322505 c 0.927353,-5.564092 4.80908,-7.966086 8.740981,-7.966086 z m 12.1764,9.903368 c 4.740635,0.216841 5.633211,5.044906 5.771078,6.088213 0.07243,1.319741 -0.162089,3.169236 -1.621954,4.69686 -1.872992,1.959948 -4.486642,2.035082 -5.674373,2.055334 -3.351129,-0.01491 -5.756923,-1.892584 -8.124562,-4.230156 0.762136,1.346285 1.865472,2.87292 3.120593,4.238955 H 19.124743 c 2.338931,-2.058473 8.676282,-8.522978 11.895717,-11.116377 1.350785,-1.088124 3.312394,-1.819679 5.217512,-1.732578 z"
            id="path3" /></g></svg>
